<svg viewBox="0 0 1409 771" version="1.1" xmlns="http://www.w3.org/2000/svg" xmlns:xlink="http://www.w3.org/1999/xlink">
    <g id="Page-1" stroke="none" stroke-width="1" fill="none" fill-rule="evenodd">
        <path d="M1073.97687,97.555028 C1067.1982,105.767876 1058.36502,112.202954 1055.20218,121.053352 C1047.41717,142.573524 1028.5365,153.655515 1016.16017,170.592935 C999.358371,193.725705 982.513712,216.936981 966.138461,240.434858 C963.22602,244.623104 960.616977,250.357365 960.793117,255.384624 C961.178716,266.715583 957.028759,274.125896 948.856838,281.069382 C932.313666,294.939327 921.123769,313.33386 912.081583,333.144373 C906.820638,344.691401 901.05491,355.825555 888.656262,361.339798 C884.837003,362.985558 881.732719,366.951997 879.16316,370.512195 C869.227805,384.124936 856.561723,395.861057 851.888493,413.21001 C836.331839,420.87842 830.913691,436.725809 823.35532,450.95244 C821.333403,454.847006 818.706012,458.895267 815.298329,461.315692 C797.946976,473.226748 787.682979,491.453874 776.573372,508.746006 C771.404311,516.685517 770.992591,527.948366 765.745295,535.84011 C761.047696,542.916054 751.287302,546.272814 746.390374,553.331731 C738.366703,564.971424 732.483257,578.231875 725.938559,590.983918 C721.501498,599.684383 719.240036,610.131879 708.518369,613.529774 C685.835911,644.376932 656.520534,669.604179 638.72943,704.484546 C627.354443,726.848388 612.935791,747.144542 599.185876,767.744326 C589.369562,782.476496 577.02185,795.349074 566.344954,809.555809 C556.638873,822.366461 546.619852,834.986046 542.026911,851.232598 C540.643789,856.249909 538.042232,861.779391 534.213433,864.780097 C517.629455,877.57838 507.643022,895.8703 495.872163,912.654024 C471.659654,947.068012 447.987301,982.021147 423.696558,1016.38737 C417.57914,1025.10862 409.677297,1032.32168 402.585689,1040.34346 C396.079153,1047.67572 387.409935,1054.00155 383.891287,1062.73939 C378.005786,1077.15001 366.134378,1082.46279 354.043238,1087.22271 C336.59398,1094.15427 321.683159,1083.06152 319.303676,1063.91866 C316.678625,1042.74172 325.010536,1025.95182 337.332414,1011.59802 C350.867295,995.786658 358.946153,977.167449 367.039983,958.138682 C375.834548,937.444259 384.550878,916.702069 396.325846,897.618008 C409.928832,875.567744 422.792332,852.961304 435.812301,830.450398 C443.497199,817.138417 447.083951,802.161675 452.172134,787.682945 C457.08139,773.723019 468.96307,762.659397 477.692907,750.299437 C479.213418,748.087555 480.741415,745.670894 481.315624,743.090588 C488.510265,709.277041 511.495388,684.371792 525.34746,654.413649 C530.64378,642.992894 535.314223,631.190004 540.454074,619.673715 C542.241286,615.635849 544.043471,611.188424 546.996717,608.07184 C555.321731,599.12833 558.887349,588.011651 560.959022,576.19218 C563.347743,562.26344 570.501291,551.453259 578.154192,540.110562 C589.612112,523.135771 599.363841,504.70055 608.204643,486.023178 C618.56801,463.983756 627.04626,441.002708 636.662655,418.611891 C639.115229,412.782096 642.549478,407.446997 645.784398,402.094871 C648.083879,398.2651 651.521505,395.025559 653.230483,390.939926 C665.53621,361.712446 680.544775,334.030533 696.022749,306.635222 C697.308556,304.280039 697.968486,301.542721 698.66379,298.931676 C700.104744,293.426301 695.30865,287.881133 689.334195,288.315693 C686.649705,288.456125 683.695137,288.326983 681.414737,289.446859 C649.375529,304.951088 612.56415,305.504024 580.085477,319.902535 C570.736659,324.033961 559.153088,323.660694 548.465474,323.939136 C539.8215,324.10457 533.35459,317.225245 531.84714,308.140224 C528.33362,286.106801 530.149596,265.966579 546.888722,250.018104 C559.854825,237.73244 570.418111,223.351666 577.397575,206.364057 C579.063693,202.35693 581.882928,198.530475 585.028018,195.635698 C607.429392,174.665702 621.262383,147.417454 636.738302,121.172311 C647.179172,103.57655 655.934253,85.0561906 667.356799,67.9551259 C683.691245,43.3855867 696.207164,16.0659125 710.202055,-10.1414121 C712.223972,-14.0359776 713.150603,-18.5992794 714.390173,-22.9715138 C718.809619,-37.7538724 724.443389,-50.7480657 735.784913,-62.3508348 C745.007937,-71.7928046 751.461484,-85.3332245 758.2334,-97.7371877 C769.112412,-117.472957 780.069658,-137.160959 790.984045,-156.770456 C791.84125,-158.340578 792.62022,-159.958467 793.555659,-161.480822 C802.237204,-174.707664 799.742057,-192.874392 813.576227,-204.839399 C826.00555,-215.568653 834.264657,-231.46094 843.695229,-245.486555 C852.661825,-258.853382 860.305917,-273.237026 869.663686,-286.365019 C878.471757,-298.677211 888.261505,-310.494708 902.761626,-316.610024 C915.394977,-321.980967 923.311649,-317.566071 926.46878,-303.28683 C927.090548,-300.604358 927.704831,-297.717108 927.48642,-295.024241 C925.163607,-274.146724 926.577708,-252.662397 918.019901,-232.974842 C911.513955,-218.000969 907.4986,-202.239165 907.795691,-185.205132 C907.906513,-179.485029 904.697427,-172.651683 900.901948,-168.374535 C893.310989,-159.820239 890.088253,-149.331609 889.492176,-138.495346 C888.33202,-118.792105 884.83231,-100.726649 871.491327,-85.8436519 C868.116964,-82.1467859 867.016837,-76.1192915 865.426899,-70.9142293 C858.795016,-49.213386 849.203132,-28.5870737 846.520411,-5.52178209 C846.072728,-2.02682641 844.350833,1.3181965 842.636424,4.45844035 C841.428851,6.8613901 838.000766,8.74598367 838.082377,10.8893081 C838.658355,31.2338622 829.352254,47.3242959 820.273371,63.7628092 C819.244726,65.6469555 821.497827,71.837647 823.582274,72.7963006 C829.124017,75.4471384 835.882141,78.7359732 841.316439,77.7622663 C860.48275,74.1819104 879.494646,69.3558524 898.236464,64.2602208 C915.240094,59.6734444 931.046424,51.7387763 949.515376,51.9196335 C957.38992,52.0171415 966.65434,51.2884539 972.806399,47.0893649 C985.766339,38.2542056 999.890847,39.1321168 1013.8718,40.6551043 C1030.20185,42.4609297 1046.06455,42.8299857 1061.84975,38.7553806 C1066.08807,37.6795078 1070.76585,37.7093525 1075.19396,38.0054547 C1085.73054,38.5768681 1091.66815,46.8078236 1088.40256,57.3749601 C1083.87156,70.8331106 1078.57862,84.3494234 1073.97687,97.555028 Z M786.793868,315.580738 C790.497606,302.873593 787.637709,293.590872 780.874887,284.960753 C778.082951,281.47664 771.810529,281.310575 768.814423,284.505665 C759.583912,294.152414 761.695372,311.875527 773.689786,317.419353 C777.268178,319.080798 782.812708,316.185574 786.793868,315.580738 Z M516.538101,775.063469 C509.215309,772.999992 506.9308,776.420205 505.4919,780.775412 C504.231928,784.611815 505.656445,788.307786 509.557315,788.805352 C512.504398,789.139272 517.676104,787.691213 518.142135,785.882257 C519.023851,782.547629 517.180272,778.281771 516.538101,775.063469 Z M1000.10972,111.91006 C995.284274,114.825628 991.671831,116.283636 989.29617,118.915472 C988.418562,119.949763 989.59135,125.06216 991.120668,125.891224 C995.892982,128.805004 999.252374,125.517696 1001.16068,121.44909 C1001.90428,119.704929 1000.72738,116.892868 1000.10972,111.91006 Z M701.149917,102.928266 C698.323929,102.563606 696.729293,102.427385 695.056422,102.243396 C695.251642,104.560761 695.204673,106.939603 695.720318,109.243256 C695.826441,109.622075 699.613702,109.9456 699.878349,109.269785 C700.7859,107.416378 700.747149,105.194547 701.149917,102.928266 Z M773.763362,-34.6617342 C772.24696,-34.7501886 769.955698,-35.5210907 769.327766,-34.7530574 C768.450159,-33.7187665 768.77396,-31.6369206 768.592978,-29.9679488 C770.714854,-30.0331906 772.79387,-30.0199263 774.837512,-30.132935 C774.534113,-31.6789498 774.10962,-33.1942255 773.763362,-34.6617342 Z M751.581126,437.590424 C749.915741,437.201657 748.229953,436.277059 746.776814,436.64593 C746.17134,436.799626 746.116884,439.383247 745.822294,440.878179 C747.886338,441.301002 749.829288,441.754563 751.893332,442.177386 L751.581126,437.590424 Z M807.440799,-54.5041421 C805.889023,-54.7188694 803.882811,-55.6297561 802.777985,-54.9435449 C801.879975,-54.4450852 802.15343,-52.0799541 801.894214,-50.4587492 C803.44599,-50.2440219 805.565811,-49.1590954 806.471307,-49.8623342 C807.419664,-50.6440791 807.224443,-52.9614433 807.440799,-54.5041421 Z M786.227184,-28.8313069 C784.224348,-27.646636 782.115389,-26.8407841 780.73843,-25.2739782 C780.196219,-24.6629571 781.630277,-22.3219331 782.09763,-20.8851635 C784.284824,-21.6432486 786.593112,-22.4320729 788.780306,-23.190158 C788.191858,-24.5961883 787.489801,-26.1762585 786.227184,-28.8313069 Z M645.979423,249.074721 C644.703157,250.074956 643.434376,250.870413 642.513909,251.98321 C642.221373,252.327973 642.895542,253.576992 643.107788,254.334629 C644.404457,253.870225 646.04944,253.723161 646.763092,252.798116 C647.184208,252.217834 646.247447,250.494463 645.979423,249.074721 Z M622.938609,552.276247 C623.193716,552.955379 623.320242,553.870029 623.825024,554.282903 C624.294432,554.569504 625.142096,554.35433 625.86118,554.374673 C625.606073,553.695542 625.479547,552.780892 625.052999,552.415784 C624.548217,552.00291 623.657692,552.296591 622.938609,552.276247 Z M645.498381,598.080807 C644.650717,598.295981 643.290785,598.303061 643.154718,598.743358 C642.781893,600.190523 642.843102,601.798016 642.747841,603.309976 C643.552645,603.173307 645.069046,603.261762 645.084018,602.852204 C645.456843,601.405038 645.438495,599.719039 645.498381,598.080807 Z M751.811274,420.354927 C751.021442,420.082038 750.309844,419.856915 749.520012,419.584025 L751.458852,422.337924 C751.524169,421.64508 751.667722,421.000004 751.811274,420.354927 Z" id="Shape" fill="#BD10E0" fill-rule="nonzero" transform="translate(704.059243, 385.239963) rotate(-90.000000) translate(-704.059243, -385.239963) "></path>
    </g>
</svg>